<svg xmlns="http://www.w3.org/2000/svg" viewBox="0 0 100 100">
  <defs>
    <linearGradient id="bg" x1="0%" y1="0%" x2="100%" y2="100%">
      <stop offset="0%" stop-color="#071E3D"/>
      <stop offset="100%" stop-color="#0F3D6B"/>
    </linearGradient>
  </defs>
  <rect width="100" height="100" rx="22" fill="url(#bg)"/>
  <circle cx="50" cy="50" r="34" fill="none" stroke="#0EA5E9" stroke-width="5"/>
  <g stroke="#FFFFFF" stroke-width="3" stroke-linecap="round">
    <g transform="rotate(0,50,50)"><line x1="60" y1="50" x2="82" y2="50"/><circle cx="87" cy="50" r="4" fill="#BAE6FD" stroke="none"/></g>
    <g transform="rotate(45,50,50)"><line x1="60" y1="50" x2="82" y2="50"/><circle cx="87" cy="50" r="4" fill="#BAE6FD" stroke="none"/></g>
    <g transform="rotate(90,50,50)"><line x1="60" y1="50" x2="82" y2="50"/><circle cx="87" cy="50" r="4" fill="#BAE6FD" stroke="none"/></g>
    <g transform="rotate(135,50,50)"><line x1="60" y1="50" x2="82" y2="50"/><circle cx="87" cy="50" r="4" fill="#BAE6FD" stroke="none"/></g>
    <g transform="rotate(180,50,50)"><line x1="60" y1="50" x2="82" y2="50"/><circle cx="87" cy="50" r="4" fill="#BAE6FD" stroke="none"/></g>
    <g transform="rotate(225,50,50)"><line x1="60" y1="50" x2="82" y2="50"/><circle cx="87" cy="50" r="4" fill="#BAE6FD" stroke="none"/></g>
    <g transform="rotate(270,50,50)"><line x1="60" y1="50" x2="82" y2="50"/><circle cx="87" cy="50" r="4" fill="#BAE6FD" stroke="none"/></g>
    <g transform="rotate(315,50,50)"><line x1="60" y1="50" x2="82" y2="50"/><circle cx="87" cy="50" r="4" fill="#BAE6FD" stroke="none"/></g>
  </g>
  <circle cx="50" cy="50" r="10" fill="#0EA5E9"/>
  <circle cx="50" cy="50" r="5" fill="#FFFFFF"/>
</svg>
